<svg viewBox="0 0 17 17" fill="currentColor" xmlns="http://www.w3.org/2000/svg">
  <g id="calendar-day-outline">
    <g id="Vector">
      <path
        d="M14.4 2.58474H12.8V1.78474C12.8 1.57257 12.7157 1.36908 12.5657 1.21906C12.4157 1.06903 12.2122 0.984741 12 0.984741C11.7878 0.984741 11.5843 1.06903 11.4343 1.21906C11.2843 1.36908 11.2 1.57257 11.2 1.78474V2.58474H8.8V1.78474C8.8 1.57257 8.71571 1.36908 8.56569 1.21906C8.41566 1.06903 8.21217 0.984741 8 0.984741C7.78783 0.984741 7.58434 1.06903 7.43431 1.21906C7.28429 1.36908 7.2 1.57257 7.2 1.78474V2.58474H4.8V1.78474C4.8 1.57257 4.71571 1.36908 4.56569 1.21906C4.41566 1.06903 4.21217 0.984741 4 0.984741C3.78783 0.984741 3.58434 1.06903 3.43431 1.21906C3.28429 1.36908 3.2 1.57257 3.2 1.78474V2.58474H1.6C1.17565 2.58474 0.768687 2.75331 0.468629 3.05337C0.168571 3.35343 0 3.76039 0 4.18474V15.3847C0 15.8091 0.168571 16.2161 0.468629 16.5161C0.768687 16.8162 1.17565 16.9847 1.6 16.9847H14.4C14.8243 16.9847 15.2313 16.8162 15.5314 16.5161C15.8314 16.2161 16 15.8091 16 15.3847V4.18474C16 3.76039 15.8314 3.35343 15.5314 3.05337C15.2313 2.75331 14.8243 2.58474 14.4 2.58474ZM3.2 4.18474C3.2 4.39691 3.28429 4.6004 3.43431 4.75043C3.58434 4.90046 3.78783 4.98474 4 4.98474C4.21217 4.98474 4.41566 4.90046 4.56569 4.75043C4.71571 4.6004 4.8 4.39691 4.8 4.18474H7.2C7.2 4.39691 7.28429 4.6004 7.43431 4.75043C7.58434 4.90046 7.78783 4.98474 8 4.98474C8.21217 4.98474 8.41566 4.90046 8.56569 4.75043C8.71571 4.6004 8.8 4.39691 8.8 4.18474H11.2C11.2 4.39691 11.2843 4.6004 11.4343 4.75043C11.5843 4.90046 11.7878 4.98474 12 4.98474C12.2122 4.98474 12.4157 4.90046 12.5657 4.75043C12.7157 4.6004 12.8 4.39691 12.8 4.18474H14.4V5.78474H1.6V4.18474H3.2ZM1.6 15.3847V7.38474H14.4V15.3847H1.6Z" />
      <path
        d="M12 8.98474H4C3.78783 8.98474 3.58434 9.06903 3.43431 9.21906C3.28429 9.36909 3.2 9.57257 3.2 9.78474C3.2 9.99691 3.28429 10.2004 3.43431 10.3504C3.58434 10.5005 3.78783 10.5847 4 10.5847H12C12.2122 10.5847 12.4157 10.5005 12.5657 10.3504C12.7157 10.2004 12.8 9.99691 12.8 9.78474C12.8 9.57257 12.7157 9.36909 12.5657 9.21906C12.4157 9.06903 12.2122 8.98474 12 8.98474Z" />
    </g>
  </g>
</svg>