<svg xmlns="http://www.w3.org/2000/svg" fill="currentColor" viewBox="0 0 20 20" >

  <path
    d="M16.8419 11.9985C17.0708 11.9986 17.2935 11.9277 17.4762 11.7967C17.659 11.6657 17.7918 11.4817 17.8545 11.2726L19.9597 4.27346C20.0043 4.12466 20.012 3.96806 19.9821 3.81596C19.9522 3.66387 19.8856 3.52045 19.7874 3.39697C19.6893 3.2735 19.5623 3.17335 19.4165 3.1044C19.2707 3.03545 19.11 2.99958 18.9471 2.99962H5.02098L4.39467 0.744907C4.3354 0.531412 4.2034 0.342558 4.01927 0.207807C3.83514 0.0730559 3.60923 -1.30133e-05 3.37679 1.73837e-09H1.05262C0.773445 1.73837e-09 0.505708 0.105344 0.308304 0.292856C0.1109 0.480369 0 0.734691 0 0.999875C0 1.26506 0.1109 1.51938 0.308304 1.70689C0.505708 1.89441 0.773445 1.99975 1.05262 1.99975H2.56628L3.19785 4.25447V4.26447V4.27346L5.30308 11.2726L6.08833 14.2582C5.56848 14.4772 5.12052 14.8254 4.79175 15.2661C4.46297 15.7069 4.26559 16.2237 4.22044 16.7622C4.17529 17.3007 4.28404 17.8407 4.53523 18.3253C4.78641 18.81 5.17069 19.2211 5.6475 19.5155C6.12431 19.8099 6.67595 19.9764 7.24417 19.9977C7.81239 20.0189 8.37611 19.894 8.87579 19.6362C9.37547 19.3783 9.79258 18.997 10.0831 18.5327C10.3736 18.0683 10.5266 17.538 10.5262 16.9979C10.5227 16.6565 10.4572 16.3182 10.3325 15.998H12.8251C12.7004 16.3182 12.6349 16.6565 12.6314 16.9979C12.6314 17.5911 12.8166 18.1711 13.1636 18.6644C13.5106 19.1577 14.0038 19.5421 14.5808 19.7692C15.1578 19.9962 15.7928 20.0556 16.4053 19.9399C17.0179 19.8241 17.5806 19.5384 18.0222 19.1189C18.4638 18.6994 18.7646 18.1649 18.8864 17.5831C19.0083 17.0012 18.9457 16.3981 18.7067 15.85C18.4677 15.3019 18.063 14.8334 17.5437 14.5038C17.0243 14.1742 16.4138 13.9982 15.7892 13.9982H8.18936L7.66305 11.9985H16.8419ZM8.42093 16.9979C8.42093 17.1956 8.3592 17.3889 8.24354 17.5534C8.12787 17.7178 7.96348 17.846 7.77114 17.9216C7.57879 17.9973 7.36715 18.0171 7.16296 17.9785C6.95877 17.94 6.77121 17.8447 6.624 17.7049C6.47679 17.5651 6.37654 17.3869 6.33593 17.1929C6.29531 16.999 6.31616 16.7979 6.39583 16.6152C6.4755 16.4325 6.61041 16.2764 6.78351 16.1665C6.95662 16.0566 7.16013 15.998 7.36832 15.998C7.64749 15.998 7.91522 16.1033 8.11263 16.2909C8.31003 16.4784 8.42093 16.7327 8.42093 16.9979ZM15.7892 17.9977C15.5811 17.9977 15.3775 17.9391 15.2044 17.8292C15.0313 17.7194 14.8964 17.5632 14.8168 17.3805C14.7371 17.1978 14.7162 16.9968 14.7569 16.8028C14.7975 16.6088 14.8977 16.4307 15.0449 16.2909C15.1921 16.151 15.3797 16.0558 15.5839 16.0172C15.7881 15.9786 15.9997 15.9984 16.1921 16.0741C16.3844 16.1498 16.5488 16.2779 16.6645 16.4424C16.7801 16.6068 16.8419 16.8001 16.8419 16.9979C16.8419 17.2631 16.731 17.5174 16.5336 17.7049C16.3362 17.8924 16.0684 17.9977 15.7892 17.9977Z" />
</svg>