<svg viewBox="0 0 25 25" fill="currentColor" xmlns="http://www.w3.org/2000/svg">
  <g id="Facebook - White" clip-path="url(#clip0_75_602)">
    <path id="Vector"
      d="M24.25 12.4848C24.25 5.85735 18.8774 0.484772 12.25 0.484772C5.62258 0.484772 0.25 5.85735 0.25 12.4848C0.25 18.4742 4.6382 23.4388 10.375 24.339V15.9535H7.32812V12.4848H10.375V9.84102C10.375 6.83352 12.1666 5.17227 14.9076 5.17227C16.2201 5.17227 17.5938 5.40665 17.5938 5.40665V8.35977H16.0806C14.59 8.35977 14.125 9.28485 14.125 10.2348V12.4848H17.4531L16.9211 15.9535H14.125V24.339C19.8618 23.4388 24.25 18.4742 24.25 12.4848Z" />
  </g>
  <defs>
    <clipPath id="clip0_75_602">
      <rect width="24" height="24" fill="white" transform="translate(0.25 0.484772)" />
    </clipPath>
  </defs>
</svg>