<svg viewBox="0 0 25 25" fill="currentColor" xmlns="http://www.w3.org/2000/svg">
	<g id="Group">
		<path
			id="Vector"
			d="M12 2.64571C15.2063 2.64571 15.5859 2.65977 16.8469 2.71602C18.0188 2.76758 18.6516 2.96446 19.0734 3.12852C19.6313 3.34415 20.0344 3.60665 20.4516 4.02383C20.8734 4.44571 21.1313 4.84415 21.3469 5.40196C21.5109 5.82383 21.7078 6.46133 21.7594 7.62852C21.8156 8.89415 21.8297 9.27383 21.8297 12.4754C21.8297 15.6816 21.8156 16.0613 21.7594 17.3223C21.7078 18.4941 21.5109 19.127 21.3469 19.5488C21.1313 20.1066 20.8687 20.5098 20.4516 20.927C20.0297 21.3488 19.6313 21.6066 19.0734 21.8223C18.6516 21.9863 18.0141 22.1832 16.8469 22.2348C15.5813 22.291 15.2016 22.3051 12 22.3051C8.79375 22.3051 8.41406 22.291 7.15313 22.2348C5.98125 22.1832 5.34844 21.9863 4.92656 21.8223C4.36875 21.6066 3.96563 21.3441 3.54844 20.927C3.12656 20.5051 2.86875 20.1066 2.65313 19.5488C2.48906 19.127 2.29219 18.4895 2.24063 17.3223C2.18438 16.0566 2.17031 15.677 2.17031 12.4754C2.17031 9.26915 2.18438 8.88946 2.24063 7.62852C2.29219 6.45665 2.48906 5.82383 2.65313 5.40196C2.86875 4.84415 3.13125 4.44102 3.54844 4.02383C3.97031 3.60196 4.36875 3.34415 4.92656 3.12852C5.34844 2.96446 5.98594 2.76758 7.15313 2.71602C8.41406 2.65977 8.79375 2.64571 12 2.64571ZM12 0.484772C8.74219 0.484772 8.33438 0.498834 7.05469 0.555084C5.77969 0.611334 4.90313 0.817584 4.14375 1.1129C3.35156 1.42227 2.68125 1.83008 2.01563 2.5004C1.34531 3.16602 0.9375 3.83633 0.628125 4.62383C0.332812 5.3879 0.126563 6.25977 0.0703125 7.53477C0.0140625 8.81915 0 9.22696 0 12.4848C0 15.7426 0.0140625 16.1504 0.0703125 17.4301C0.126563 18.7051 0.332812 19.5816 0.628125 20.341C0.9375 21.1332 1.34531 21.8035 2.01563 22.4691C2.68125 23.1348 3.35156 23.5473 4.13906 23.852C4.90313 24.1473 5.775 24.3535 7.05 24.4098C8.32969 24.466 8.7375 24.4801 11.9953 24.4801C15.2531 24.4801 15.6609 24.466 16.9406 24.4098C18.2156 24.3535 19.0922 24.1473 19.8516 23.852C20.6391 23.5473 21.3094 23.1348 21.975 22.4691C22.6406 21.8035 23.0531 21.1332 23.3578 20.3457C23.6531 19.5816 23.8594 18.7098 23.9156 17.4348C23.9719 16.1551 23.9859 15.7473 23.9859 12.4895C23.9859 9.23165 23.9719 8.82383 23.9156 7.54415C23.8594 6.26915 23.6531 5.39258 23.3578 4.63321C23.0625 3.83633 22.6547 3.16602 21.9844 2.5004C21.3188 1.83477 20.6484 1.42227 19.8609 1.11758C19.0969 0.822272 18.225 0.616022 16.95 0.559772C15.6656 0.498834 15.2578 0.484772 12 0.484772Z"
		>
		</path>
		<path
			id="Vector_2"
			d="M12 6.32071C8.59688 6.32071 5.83594 9.08165 5.83594 12.4848C5.83594 15.8879 8.59688 18.6488 12 18.6488C15.4031 18.6488 18.1641 15.8879 18.1641 12.4848C18.1641 9.08165 15.4031 6.32071 12 6.32071ZM12 16.4832C9.79219 16.4832 8.00156 14.6926 8.00156 12.4848C8.00156 10.277 9.79219 8.48633 12 8.48633C14.2078 8.48633 15.9984 10.277 15.9984 12.4848C15.9984 14.6926 14.2078 16.4832 12 16.4832Z"
		>
		</path>
		<path
			id="Vector_3"
			d="M19.8469 6.07691C19.8469 6.87379 19.2 7.51598 18.4078 7.51598C17.6109 7.51598 16.9688 6.8691 16.9688 6.07691C16.9688 5.28004 17.6156 4.63785 18.4078 4.63785C19.2 4.63785 19.8469 5.28472 19.8469 6.07691Z"
		>
		</path>
	</g>
</svg>
