<svg viewBox="0 0 17 17" fill="currentColor" xmlns="http://www.w3.org/2000/svg">
  <g id="store-outline">
    <g id="Vector">
      <path
        d="M16 5.82685C16 4.74643 14.6992 2.18053 14.3008 1.42011C14.2317 1.28819 14.1302 1.1782 14.0069 1.10163C13.8837 1.02505 13.7431 0.984684 13.6 0.984741H2.4C2.25827 0.984681 2.11906 1.02426 1.99663 1.09942C1.8742 1.17459 1.77293 1.28264 1.7032 1.41253C1.304 2.15779 0 4.67737 0 5.82685C0.00034895 6.1946 0.0714072 6.55847 0.208895 6.89654C0.346382 7.23461 0.547454 7.5399 0.8 7.794V16.1426C0.8 16.366 0.884285 16.5802 1.03431 16.7381C1.18434 16.896 1.38783 16.9847 1.6 16.9847H4C4.21217 16.9847 4.41566 16.896 4.56569 16.7381C4.71571 16.5802 4.8 16.366 4.8 16.1426V11.09H6.4V16.1426C6.4 16.366 6.48429 16.5802 6.63431 16.7381C6.78434 16.896 6.98783 16.9847 7.2 16.9847H14.4C14.6122 16.9847 14.8157 16.896 14.9657 16.7381C15.1157 16.5802 15.2 16.366 15.2 16.1426V7.75864C15.4483 7.50849 15.6469 7.2089 15.7842 6.87727C15.9215 6.54564 15.9949 6.18858 16 5.82685ZM2.8728 2.66895H13.12C13.6724 3.66007 14.1025 4.72125 14.4 5.82685C14.3836 6.10036 14.2729 6.35817 14.0889 6.55195C13.9048 6.74574 13.6598 6.86219 13.4 6.87948C13.1349 6.87903 12.8808 6.76799 12.6934 6.57068C12.5059 6.37337 12.4004 6.10588 12.4 5.82685C12.4 5.60351 12.3157 5.38931 12.1657 5.23139C12.0157 5.07346 11.8122 4.98474 11.6 4.98474C11.3878 4.98474 11.1843 5.07346 11.0343 5.23139C10.8843 5.38931 10.8 5.60351 10.8 5.82685C10.8 6.10602 10.6946 6.37376 10.5071 6.57117C10.3196 6.76858 10.0652 6.87948 9.8 6.87948C9.53478 6.87948 9.28043 6.76858 9.09289 6.57117C8.90536 6.37376 8.8 6.10602 8.8 5.82685C8.8 5.60351 8.71571 5.38931 8.56569 5.23139C8.41566 5.07346 8.21217 4.98474 8 4.98474C7.78783 4.98474 7.58434 5.07346 7.43431 5.23139C7.28429 5.38931 7.2 5.60351 7.2 5.82685C7.2 6.10602 7.09464 6.37376 6.90711 6.57117C6.71957 6.76858 6.46522 6.87948 6.2 6.87948C5.93478 6.87948 5.68043 6.76858 5.49289 6.57117C5.30536 6.37376 5.2 6.10602 5.2 5.82685C5.2 5.60351 5.11571 5.38931 4.96569 5.23139C4.81566 5.07346 4.61217 4.98474 4.4 4.98474C4.18783 4.98474 3.98434 5.07346 3.83431 5.23139C3.68429 5.38931 3.6 5.60351 3.6 5.82685C3.59958 6.10588 3.49408 6.37337 3.30664 6.57068C3.11919 6.76799 2.86509 6.87903 2.6 6.87948C2.33581 6.87599 2.08338 6.76396 1.89656 6.56731C1.70974 6.37065 1.60332 6.10494 1.6 5.82685C1.88341 4.71729 2.31176 3.65452 2.8728 2.66895ZM13.6 15.3005H8V10.2479C8 10.0246 7.91571 9.81037 7.76569 9.65244C7.61566 9.49452 7.41217 9.40579 7.2 9.40579H4C3.78783 9.40579 3.58434 9.49452 3.43431 9.65244C3.28429 9.81037 3.2 10.0246 3.2 10.2479V15.3005H2.4V8.54264C2.4672 8.54769 2.5312 8.56369 2.6 8.56369C3.27131 8.56398 3.91656 8.29018 4.4 7.7999C4.88357 8.28999 5.52873 8.56379 6.2 8.56379C6.87127 8.56379 7.51643 8.28999 8 7.7999C8.48357 8.28999 9.12873 8.56379 9.8 8.56379C10.4713 8.56379 11.1164 8.28999 11.6 7.7999C12.0834 8.29018 12.7287 8.56398 13.4 8.56369C13.468 8.56369 13.5328 8.54685 13.6 8.54095V15.3005Z" />
      <path
        d="M12 9.40579H9.6C9.38783 9.40579 9.18434 9.49452 9.03431 9.65244C8.88429 9.81037 8.8 10.0246 8.8 10.2479V12.7742C8.8 12.9976 8.88429 13.2117 9.03431 13.3697C9.18434 13.5276 9.38783 13.6163 9.6 13.6163H12C12.2122 13.6163 12.4157 13.5276 12.5657 13.3697C12.7157 13.2117 12.8 12.9976 12.8 12.7742V10.2479C12.8 10.0246 12.7157 9.81037 12.5657 9.65244C12.4157 9.49452 12.2122 9.40579 12 9.40579ZM11.2 11.9321H10.4V11.09H11.2V11.9321Z" />
    </g>
  </g>
</svg>