<svg viewBox="0 0 25 25" fill="currentColor" xmlns="http://www.w3.org/2000/svg">
  <g id="WA - White" clip-path="url(#clip0_75_658)">
    <path id="Vector" fill-rule="evenodd" clip-rule="evenodd"
      d="M21.0031 3.96978C18.7473 1.72356 15.7471 0.485911 12.5504 0.484772C5.9634 0.484772 0.602564 5.81542 0.600272 12.3678C0.599126 14.4624 1.14976 16.5069 2.19546 18.3087L0.5 24.4673L6.83491 22.8148C8.5802 23.7619 10.5455 24.2604 12.5453 24.261H12.5504C19.1363 24.261 24.4977 18.9298 24.5 12.3774C24.5011 9.20188 23.2595 6.21658 21.0031 3.97035V3.96978ZM12.5504 22.2541H12.5464C10.7644 22.2536 9.01627 21.7771 7.491 20.8774L7.12828 20.6632L3.36893 21.6438L4.37223 17.9987L4.13615 17.6249C3.14203 16.0522 2.6166 14.2345 2.61775 12.3684C2.62004 6.92258 7.07556 2.49167 12.5545 2.49167C15.2073 2.49281 17.701 3.52134 19.5763 5.38863C21.4517 7.25536 22.4837 9.7375 22.4825 12.3763C22.4802 17.8227 18.0247 22.2536 12.5504 22.2536V22.2541ZM17.9983 14.8567C17.6998 14.708 16.2319 13.99 15.9579 13.8909C15.6841 13.7917 15.4853 13.7422 15.2864 14.0396C15.0876 14.3371 14.5152 15.006 14.341 15.2037C14.1668 15.402 13.9926 15.4266 13.6941 15.2778C13.3956 15.1291 12.4335 14.8157 11.2927 13.8042C10.4052 13.0167 9.8058 12.0447 9.63167 11.7472C9.45747 11.4498 9.61333 11.2891 9.76227 11.1415C9.89633 11.0082 10.0608 10.7945 10.2103 10.6213C10.3599 10.448 10.4092 10.3238 10.5089 10.1261C10.6086 9.92778 10.5587 9.75461 10.4843 9.60583C10.4097 9.45713 9.81273 7.99551 9.56347 7.40121C9.32107 6.82229 9.07473 6.90093 8.89193 6.89124C8.71773 6.88269 8.51893 6.88098 8.31953 6.88098C8.12013 6.88098 7.79693 6.95506 7.52307 7.25251C7.2492 7.54992 6.47794 8.26846 6.47794 9.72948C6.47794 11.1905 7.54773 12.6031 7.69727 12.8014C7.8468 12.9997 9.80293 15.9987 12.7979 17.2853C13.5102 17.5913 14.0665 17.7742 14.5003 17.911C15.2154 18.1372 15.8663 18.1053 16.3808 18.0289C16.9544 17.9434 18.1473 17.3104 18.396 16.6169C18.6447 15.9234 18.6447 15.3285 18.5702 15.2049C18.4957 15.0812 18.2963 15.0066 17.9978 14.8579L17.9983 14.8567Z" />
  </g>
  <defs>
    <clipPath id="clip0_75_658">
      <rect width="24" height="24" fill="white" transform="translate(0.5 0.484772)" />
    </clipPath>
  </defs>
</svg>