<svg xmlns="http://www.w3.org/2000/svg" viewBox="0 0 200 200"><defs><style>.cls-1{fill:#09c;}.cls-2{fill:#fff;}</style></defs><g id="Capa_2" data-name="Capa 2"><g id="Capa_1-2" data-name="Capa 1"><rect class="cls-1" width="200" height="200" rx="38.53"/><path class="cls-2" d="M177.63,110.42a6.9,6.9,0,0,1,6.84,7v12.51a18.66,18.66,0,0,1-18.58,18.75H132.06c-2.18-1.86-3.23-3.27-3.23-5.72,0-3,1.63-4.47,5-7.18h0c3.55-2.83,8.4-6.72,8.4-14.27s-4.86-11.43-8.41-14.27c-3.39-2.71-5-4.14-5-7.18s1.63-4.48,5-7.19c3.56-2.84,8.42-6.72,8.42-14.27s-4.86-11.44-8.41-14.27c-3.39-2.71-5-4.15-5-7.19,0-2.44,1-3.85,3.22-5.71h33.84a18.66,18.66,0,0,1,18.58,18.75V82.63a6.9,6.9,0,0,1-6.84,7,10.42,10.42,0,0,0,0,20.84Z"/><path class="cls-2" d="M124.29,114.27c-3.55-2.84-8.42-6.72-8.42-14.27s4.87-11.44,8.42-14.28c3.39-2.7,5-4.14,5-7.18s-1.63-4.48-5-7.19c-3.55-2.84-8.42-6.72-8.42-14.27A14.86,14.86,0,0,1,117,51.37H34.11A18.66,18.66,0,0,0,15.53,70.12V82.63a6.9,6.9,0,0,0,6.84,7,10.42,10.42,0,0,1,0,20.84,6.9,6.9,0,0,0-6.84,7v12.51a18.66,18.66,0,0,0,18.58,18.75H117a14.92,14.92,0,0,1-1.08-5.72c0-7.55,4.87-11.43,8.42-14.27,3.39-2.7,5-4.14,5-7.19S127.68,117,124.29,114.27Zm-56.08.52a6.62,6.62,0,0,1-9.2,0,6.49,6.49,0,0,1,0-9.14,6.62,6.62,0,0,1,9.2,0,6.49,6.49,0,0,1,0,9.14Zm0-20.44a6.62,6.62,0,0,1-9.2,0,6.49,6.49,0,0,1,0-9.14A6.48,6.48,0,0,1,70.09,89.8,6.17,6.17,0,0,1,68.21,94.35Zm25.85,7a55.29,55.29,0,0,1-1.92,14.55A51.81,51.81,0,0,1,88,126.4c-.36.74-.74,1.43-1.14,2.1a1.28,1.28,0,0,1-1.09.61H76.66a1.28,1.28,0,0,1-1.19-1.75c.71-1.85,1.36-3.62,1.93-5.29.28-.86.54-1.72.79-2.6A85.45,85.45,0,0,0,80.49,109a68.71,68.71,0,0,0,.82-9,68.71,68.71,0,0,0-.82-9,85.45,85.45,0,0,0-2.3-10.46c-.25-.88-.51-1.74-.79-2.6-.57-1.67-1.22-3.44-1.93-5.29a1.28,1.28,0,0,1,1.19-1.75H85.8a1.28,1.28,0,0,1,1.09.61c.4.67.78,1.36,1.15,2.1a52.37,52.37,0,0,1,4.1,10.47,55.29,55.29,0,0,1,1.92,14.55c0,.46,0,.92,0,1.38S94.06,100.92,94.06,101.38Z"/></g></g></svg>