<svg viewBox="0 0 17 17" fill="currentColor" xmlns="http://www.w3.org/2000/svg">
  <g id="map-pin-outline">
    <g id="Vector">
      <path
        d="M7.99775 10.5879C7.33848 10.5879 6.69401 10.4003 6.14585 10.0489C5.59769 9.69742 5.17044 9.19789 4.91815 8.61346C4.66586 8.02902 4.59985 7.38592 4.72847 6.76549C4.85708 6.14506 5.17455 5.57515 5.64073 5.12784C6.1069 4.68054 6.70085 4.37592 7.34745 4.25251C7.99405 4.12909 8.66427 4.19243 9.27336 4.43451C9.88245 4.6766 10.403 5.08655 10.7693 5.61252C11.1356 6.1385 11.3311 6.75688 11.3311 7.38947C11.3311 8.23775 10.9799 9.05128 10.3548 9.6511C9.72965 10.2509 8.8818 10.5879 7.99775 10.5879ZM7.99775 5.79026C7.66811 5.79026 7.34588 5.88405 7.0718 6.05978C6.79772 6.2355 6.5841 6.48526 6.45795 6.77748C6.3318 7.0697 6.2988 7.39125 6.36311 7.70146C6.42742 8.01168 6.58615 8.29663 6.81924 8.52028C7.05233 8.74394 7.3493 8.89625 7.6726 8.95796C7.9959 9.01966 8.33101 8.98799 8.63555 8.86695C8.9401 8.74591 9.2004 8.54094 9.38353 8.27795C9.56667 8.01496 9.66442 7.70577 9.66442 7.38947C9.66442 6.96533 9.48882 6.55857 9.17626 6.25866C8.8637 5.95875 8.43978 5.79026 7.99775 5.79026Z" />
      <path
        d="M7.99775 16.9847C7.87471 16.9847 7.75321 16.9585 7.64198 16.908C7.53075 16.8576 7.43254 16.7841 7.35442 16.6929L2.98358 11.5962C2.90025 11.5066 2.80525 11.3947 2.71192 11.2764L2.61192 11.1596C2.57311 11.1145 2.53957 11.0654 2.51192 11.0133C1.82552 10.0583 1.4227 8.94218 1.34657 7.7844C1.27044 6.62663 1.52386 5.47078 2.07971 4.44058C2.63556 3.41038 3.47292 2.54461 4.50215 1.93595C5.53138 1.32728 6.71374 0.998629 7.92267 0.985172C9.1316 0.971715 10.3216 1.27396 11.3653 1.85955C12.4089 2.44514 13.267 3.29204 13.8476 4.30959C14.4282 5.32714 14.7095 6.47703 14.6614 7.63619C14.6133 8.79535 14.2375 9.92013 13.5744 10.8901C13.5472 10.9451 13.5131 10.9967 13.4727 11.0437L13.3669 11.1676C13.218 11.3631 13.0571 11.55 12.8852 11.7273L8.64192 16.6889C8.5641 16.7809 8.46594 16.8552 8.35454 16.9064C8.24313 16.9575 8.12126 16.9843 7.99775 16.9847ZM3.97692 10.2377L4.01608 10.2832C4.09942 10.3912 4.17692 10.4767 4.25358 10.5599L7.99775 14.9258L11.6294 10.6814C11.7786 10.5272 11.9178 10.3644 12.0461 10.1937L12.1086 10.1209L12.1302 10.0881C12.6457 9.36294 12.9439 8.51594 12.9924 7.63938C13.0409 6.76281 12.8379 5.89027 12.4054 5.11677C11.9729 4.34326 11.3275 3.69844 10.5395 3.25251C9.75152 2.80658 8.85113 2.57663 7.93638 2.58771C7.02163 2.59878 6.12757 2.85046 5.35156 3.31532C4.57555 3.78019 3.94733 4.44043 3.5353 5.22416C3.12327 6.00789 2.94323 6.88507 3.01478 7.76018C3.08633 8.6353 3.40673 9.4748 3.94108 10.1873C3.95442 10.2044 3.96636 10.2211 3.97692 10.2377Z" />
    </g>
  </g>
</svg>