<svg xmlns="http://www.w3.org/2000/svg" viewBox="0 0 132 76" fill="currentColor">
  <g id="isotype">
    <path
      d="M85,49.15C82.2,46.93,78.4,43.9,78.4,38S82.2,29.06,85,26.84s3.92-3.23,3.92-5.61-1.27-3.5-3.92-5.62S78.4,10.36,78.4,4.46A11.51,11.51,0,0,1,79.25,0H14.52A14.59,14.59,0,0,0,0,14.65v9.78a5.39,5.39,0,0,0,5.35,5.43,8.14,8.14,0,0,1,0,16.28A5.39,5.39,0,0,0,0,51.57v9.78A14.59,14.59,0,0,0,14.52,76H79.25a11.53,11.53,0,0,1-.85-4.47c0-5.9,3.8-8.93,6.58-11.15s3.92-3.24,3.92-5.62S87.63,51.26,85,49.15Zm-43.82.41a5.18,5.18,0,0,1-7.19,0,5.08,5.08,0,0,1,0-7.15,5.18,5.18,0,0,1,7.19,0,5.08,5.08,0,0,1,0,7.15Zm0-16a5.18,5.18,0,0,1-7.19,0,5.08,5.08,0,0,1,0-7.15,5.18,5.18,0,0,1,7.19,0,5.08,5.08,0,0,1,0,7.15Zm20.2,5.49a42.87,42.87,0,0,1-1.51,11.37,40.07,40.07,0,0,1-3.2,8.18c-.29.57-.58,1.12-.89,1.64a1,1,0,0,1-.86.47H47.76a1,1,0,0,1-.93-1.36c.56-1.45,1.06-2.83,1.51-4.14.22-.66.42-1.34.62-2A66.05,66.05,0,0,0,50.76,45a53.65,53.65,0,0,0,.63-7,53.65,53.65,0,0,0-.63-7A66.05,66.05,0,0,0,49,22.79c-.2-.69-.4-1.37-.62-2-.45-1.31-1-2.69-1.51-4.14a1,1,0,0,1,.93-1.36H54.9a1,1,0,0,1,.86.47c.31.52.6,1.07.89,1.64a40.07,40.07,0,0,1,3.2,8.18,42.87,42.87,0,0,1,1.51,11.37c0,.36,0,.72,0,1.08S61.36,38.72,61.36,39.08Z">
    </path>
    <path
      d="M117.48,0H91c-1.69,1.45-2.51,2.55-2.51,4.46,0,2.38,1.27,3.5,3.92,5.62S99,15.33,99,21.23s-3.8,8.94-6.58,11.16S88.53,35.62,88.53,38s1.27,3.49,3.92,5.61S99,48.86,99,54.76s-3.79,8.94-6.57,11.15h0c-2.65,2.11-3.92,3.23-3.92,5.61,0,1.91.82,3,2.52,4.47h26.43A14.59,14.59,0,0,0,132,61.35V51.57a5.39,5.39,0,0,0-5.35-5.43,8.14,8.14,0,0,1,0-16.28A5.39,5.39,0,0,0,132,24.43V14.65A14.59,14.59,0,0,0,117.48,0Z">
    </path>
  </g>
</svg>