<svg xmlns="http://www.w3.org/2000/svg" viewBox="0 0 342.55 182.87"><defs><style>.cls-1{fill:#09c;}</style></defs><g id="Capa_2" data-name="Capa 2"><g id="Capa_1-2" data-name="Capa 1"><path class="cls-1" d="M262.19,68.83a8,8,0,0,1,8,8.09V91.5a21.76,21.76,0,0,1-21.65,21.86H209.08c-2.53-2.18-3.76-3.82-3.76-6.67,0-3.54,1.9-5.22,5.85-8.37h0c4.13-3.3,9.8-7.83,9.8-16.63s-5.67-13.32-9.81-16.63c-3.95-3.16-5.85-4.83-5.85-8.38s1.9-5.21,5.84-8.36C215.31,45,221,40.47,221,31.67S215.31,18.34,211.17,15c-3.95-3.15-5.85-4.83-5.85-8.37,0-2.85,1.23-4.49,3.75-6.66h39.44a21.75,21.75,0,0,1,21.65,21.86V36.44a8,8,0,0,1-8,8.09,12.15,12.15,0,0,0,0,24.3Z"/><path class="cls-1" d="M200,73.31c-4.14-3.31-9.81-7.84-9.81-16.64S195.89,43.35,200,40c3.95-3.15,5.85-4.83,5.85-8.37S204,26.44,200,23.29c-4.14-3.31-9.81-7.83-9.81-16.63A17.38,17.38,0,0,1,191.48,0H94.93A21.75,21.75,0,0,0,73.28,21.85V36.44a8,8,0,0,0,8,8.09,12.15,12.15,0,0,1,0,24.29,8,8,0,0,0-8,8.1V91.5a21.76,21.76,0,0,0,21.65,21.86h96.55a17.43,17.43,0,0,1-1.26-6.67c0-8.8,5.67-13.32,9.81-16.63,3.95-3.15,5.85-4.83,5.85-8.38S204,76.46,200,73.31Zm-65.36.61a7.72,7.72,0,0,1-10.73,0,7.58,7.58,0,0,1,0-10.66,7.72,7.72,0,0,1,10.73,0,7.58,7.58,0,0,1,0,10.66Zm0-23.82a7.72,7.72,0,0,1-10.73,0,7.58,7.58,0,0,1,0-10.66,7.72,7.72,0,0,1,10.73,0,7.58,7.58,0,0,1,0,10.66Zm30.13,8.18a64.58,64.58,0,0,1-2.24,17,61,61,0,0,1-4.78,12.2c-.43.86-.88,1.67-1.34,2.44a1.46,1.46,0,0,1-1.27.71H144.51a1.48,1.48,0,0,1-1.38-2q1.25-3.24,2.26-6.17c.31-1,.62-2,.91-3A100.14,100.14,0,0,0,149,67.19a79.94,79.94,0,0,0,.94-10.51A79.94,79.94,0,0,0,149,46.17,100.14,100.14,0,0,0,146.3,34c-.29-1-.6-2-.91-3q-1-2.92-2.26-6.17a1.48,1.48,0,0,1,1.38-2h10.66a1.46,1.46,0,0,1,1.27.71c.46.77.91,1.58,1.34,2.44a61,61,0,0,1,4.78,12.2,64.56,64.56,0,0,1,2.24,17c0,.54,0,1.07,0,1.61S164.8,57.75,164.8,58.28Z"/><path class="cls-1" d="M13.36,131.84,0,171.69H12.31l2.09-7h13l2.1,7H42.1L28.43,131.84Zm3.53,24.47,0-.08q1.5-5,2.8-10.16c.39-1.54.77-3.1,1.16-4.67.39,1.57.79,3.13,1.19,4.67q1.36,5.13,2.85,10.16l0,.08Z"/><path class="cls-1" d="M55.46,151.14a3.93,3.93,0,0,1,2.47-.79,4.35,4.35,0,0,1,1.61.29,3.62,3.62,0,0,1,1.25.87,4.61,4.61,0,0,1,.86,1.39,7.23,7.23,0,0,1,.48,1.86l10.19-.67a12.77,12.77,0,0,0-1.3-4.87,11.55,11.55,0,0,0-3-3.75,13.8,13.8,0,0,0-4.52-2.42,18.29,18.29,0,0,0-5.74-.86,16.92,16.92,0,0,0-8.2,1.89,13.21,13.21,0,0,0-5.37,5.26,17.52,17.52,0,0,0,0,15.79,13.21,13.21,0,0,0,5.37,5.26,16.92,16.92,0,0,0,8.2,1.89,18.83,18.83,0,0,0,5.83-.86A13.51,13.51,0,0,0,68.11,169a11.73,11.73,0,0,0,4.21-8.74l-10.19-.64a6.93,6.93,0,0,1-.45,1.92,4.33,4.33,0,0,1-.88,1.43,3.55,3.55,0,0,1-1.26.88,4,4,0,0,1-1.61.31,3.91,3.91,0,0,1-2.46-.81,5.16,5.16,0,0,1-1.6-2.36,11,11,0,0,1-.55-3.73,11.18,11.18,0,0,1,.55-3.76A4.91,4.91,0,0,1,55.46,151.14Z"/><path class="cls-1" d="M95.39,158.5a6.32,6.32,0,0,1-.49,2.64,3.45,3.45,0,0,1-1.42,1.63,4.33,4.33,0,0,1-2.24.55,3.88,3.88,0,0,1-3.06-1.22,4.87,4.87,0,0,1-1.09-3.35V142.7H76.22v18.37a13.69,13.69,0,0,0,1.18,5.85,9,9,0,0,0,3.45,3.9,10,10,0,0,0,5.43,1.41A9.23,9.23,0,0,0,93,169.87a13.88,13.88,0,0,0,2.72-3.78l.06,5.6h10.49v-29H95.39Z"/><path class="cls-1" d="M134.15,144.06a19.27,19.27,0,0,0-16.56,0,13.36,13.36,0,0,0-5.45,5.24,17.38,17.38,0,0,0,0,15.88,13.24,13.24,0,0,0,5.45,5.24,19.36,19.36,0,0,0,16.56,0,13.28,13.28,0,0,0,5.42-5.24,17.3,17.3,0,0,0,0-15.88A13.41,13.41,0,0,0,134.15,144.06ZM129.88,161a5.16,5.16,0,0,1-1.62,2.34,3.95,3.95,0,0,1-4.79,0,5.12,5.12,0,0,1-1.64-2.34,12.38,12.38,0,0,1,0-7.49,5,5,0,0,1,1.64-2.28,4.07,4.07,0,0,1,4.79,0,5,5,0,0,1,1.62,2.28,12.18,12.18,0,0,1,0,7.49Z"/><path class="cls-1" d="M162.71,163.69c-.7,0-1.25.06-1.67.06a2.64,2.64,0,0,1-1.81-.47,2.12,2.12,0,0,1-.49-1.59v-11h5.58v-8h-5.58v-7.44H147.87v7.44h-4.39v8h4.39v12.46q0,4.44,2.57,6.59c1.72,1.44,4.38,2.16,8,2.16,1.1,0,2.21,0,3.33-.08a21.9,21.9,0,0,0,2.93-.33l-.6-7.91C163.87,163.62,163.4,163.66,162.71,163.69Z"/><path class="cls-1" d="M192.5,144.89a13,13,0,0,0-4.35-2,22.13,22.13,0,0,0-5.83-.7,20,20,0,0,0-7.33,1.19,10.63,10.63,0,0,0-4.65,3.34,10,10,0,0,0-2,5.07l9.87.43a2.94,2.94,0,0,1,.62-1.46,3.14,3.14,0,0,1,1.29-.87,5.5,5.5,0,0,1,1.86-.29,5.13,5.13,0,0,1,1.76.27,2.67,2.67,0,0,1,1.15.76,1.74,1.74,0,0,1,.42,1.16v.11a1.55,1.55,0,0,1-.69,1.32,5.59,5.59,0,0,1-2.22.77c-1,.17-2.38.33-4.06.45a21,21,0,0,0-4.35.74,11.43,11.43,0,0,0-3.52,1.64,7.36,7.36,0,0,0-2.35,2.77,9.17,9.17,0,0,0-.84,4.1,8.46,8.46,0,0,0,1.25,4.77,7.58,7.58,0,0,0,3.46,2.8,12.87,12.87,0,0,0,5.11.94,12.05,12.05,0,0,0,3.45-.46,8.06,8.06,0,0,0,2.81-1.44,9,9,0,0,0,2.19-2.67h.17v4.06h10.38v-19.6a8.93,8.93,0,0,0-.92-4.07A9,9,0,0,0,192.5,144.89Zm-7.06,16.53a3.46,3.46,0,0,1-.71,2.21,4.44,4.44,0,0,1-1.8,1.36,5.83,5.83,0,0,1-2.29.47,4.35,4.35,0,0,1-1.63-.28,2.53,2.53,0,0,1-1.11-.82,2.08,2.08,0,0,1-.4-1.31,2.27,2.27,0,0,1,.4-1.33,3,3,0,0,1,1.21-1,6.6,6.6,0,0,1,2-.59l1.32-.26,1.13-.24a10,10,0,0,0,1-.27l.9-.28Z"/><path class="cls-1" d="M220.19,154.2l-6.15-1a4.55,4.55,0,0,1-2.11-.77,1.51,1.51,0,0,1-.63-1.19,1.53,1.53,0,0,1,.89-1.36,4.88,4.88,0,0,1,2.41-.51,4.76,4.76,0,0,1,2.7.76,2.86,2.86,0,0,1,1.29,2.1l9.76-.58a8.68,8.68,0,0,0-2-5,11.11,11.11,0,0,0-4.82-3.22,24.2,24.2,0,0,0-14.65,0,10.24,10.24,0,0,0-4.73,3.28,8.12,8.12,0,0,0-1.66,5.16,7.41,7.41,0,0,0,2.28,5.64,12.54,12.54,0,0,0,6.72,2.92l5.37.91a7.6,7.6,0,0,1,2.52.77,1.41,1.41,0,0,1,.81,1.23,1.5,1.5,0,0,1-.89,1.37,5.36,5.36,0,0,1-2.5.48,5,5,0,0,1-3.1-.86,4,4,0,0,1-1.48-2.35l-10.41.64a9.64,9.64,0,0,0,2.34,5.16,12.39,12.39,0,0,0,5.13,3.4,21.11,21.11,0,0,0,7.42,1.2,20.58,20.58,0,0,0,7.56-1.28,12,12,0,0,0,5.12-3.6,8.43,8.43,0,0,0,1.85-5.41,6.45,6.45,0,0,0-2.23-5.15A13.92,13.92,0,0,0,220.19,154.2Z"/><path class="cls-1" d="M244.29,131.84l-13.37,39.85h12.31l2.1-7h13l2.09,7H273l-13.66-39.85Zm3.52,24.47,0-.08q1.49-5,2.79-10.16c.39-1.54.78-3.1,1.16-4.67.39,1.57.79,3.13,1.2,4.67q1.35,5.13,2.84,10.16l0,.08Z"/><path class="cls-1" d="M301.33,143.93a11,11,0,0,0-6.06-1.74,10.12,10.12,0,0,0-3.61.6,8.06,8.06,0,0,0-2.74,1.69A9.06,9.06,0,0,0,287,147h-.19v-4.3H276.08v40.17H287V167.2h.14a7.83,7.83,0,0,0,1.76,2.65,8.26,8.26,0,0,0,2.72,1.75,9.71,9.71,0,0,0,3.6.63,11.28,11.28,0,0,0,6.26-1.77,12.05,12.05,0,0,0,4.32-5.12,18.92,18.92,0,0,0,1.59-8.15A18.52,18.52,0,0,0,305.7,149,12.25,12.25,0,0,0,301.33,143.93Zm-5.62,16.82a5,5,0,0,1-1.59,2.32,4,4,0,0,1-2.53.81,4.28,4.28,0,0,1-2.6-.81,5.31,5.31,0,0,1-1.74-2.33,10.56,10.56,0,0,1,0-7.13A5.25,5.25,0,0,1,289,151.3a4.22,4.22,0,0,1,2.6-.82,3.94,3.94,0,0,1,2.53.82,4.94,4.94,0,0,1,1.59,2.31,12.07,12.07,0,0,1,0,7.14Z"/><path class="cls-1" d="M336.55,143.93a11,11,0,0,0-6.06-1.74,10.18,10.18,0,0,0-3.62.6,8.06,8.06,0,0,0-2.74,1.69,8.83,8.83,0,0,0-1.88,2.52h-.19v-4.3H311.29v40.17h10.87V167.2h.14a8,8,0,0,0,1.76,2.65,8.21,8.21,0,0,0,2.73,1.75,9.62,9.62,0,0,0,3.59.63,11.28,11.28,0,0,0,6.26-1.77,11.92,11.92,0,0,0,4.32-5.12,18.92,18.92,0,0,0,1.59-8.15,18.52,18.52,0,0,0-1.64-8.18A12.23,12.23,0,0,0,336.55,143.93Zm-5.63,16.82a5,5,0,0,1-1.59,2.32,4,4,0,0,1-2.53.81,4.3,4.3,0,0,1-2.6-.81,5.39,5.39,0,0,1-1.74-2.33,10.56,10.56,0,0,1,0-7.13,5.33,5.33,0,0,1,1.74-2.31,4.24,4.24,0,0,1,2.6-.82,3.94,3.94,0,0,1,2.53.82,4.94,4.94,0,0,1,1.59,2.31,12.07,12.07,0,0,1,0,7.14Z"/></g></g></svg>